<svg version="1.1" id="Layer_1" xmlns="http://www.w3.org/2000/svg" xmlns:xlink="http://www.w3.org/1999/xlink" x="0px" y="0px"
	 width="100%" viewBox="0 0 178 148" enable-background="new 0 0 178 148" xml:space="preserve">
<path fill="#FDFDFD" opacity="1.000000" stroke="none" 
	d="
M119.000000,149.000000 
	C79.333336,149.000000 40.166676,149.000000 1.000010,149.000000 
	C1.000007,99.666679 1.000007,50.333355 1.000004,1.000024 
	C60.333317,1.000016 119.666634,1.000016 178.999969,1.000008 
	C178.999969,50.333309 178.999969,99.666618 178.999985,148.999969 
	C159.166672,149.000000 139.333328,149.000000 119.000000,149.000000 
M80.499771,131.444153 
	C94.832245,131.444077 109.165222,131.519211 123.497047,131.422745 
	C137.827042,131.326324 146.948059,122.249901 146.999374,107.998756 
	C147.078598,86.000366 147.078537,64.001266 146.999420,42.002872 
	C146.948166,27.751360 137.827545,18.641384 123.498718,18.580990 
	C101.167122,18.486866 78.834549,18.486977 56.502949,18.580944 
	C42.172989,18.641243 33.051975,27.749992 33.000629,42.001202 
	C32.921368,63.999596 32.921463,85.998688 33.000599,107.997086 
	C33.051865,122.248634 42.172588,131.284897 56.501278,131.430130 
	C64.166695,131.507828 71.833549,131.444092 80.499771,131.444153 
z"/>
<path fill="#020202" opacity="1.000000" stroke="none" 
	d="
M79.999763,131.444168 
	C71.833549,131.444092 64.166695,131.507828 56.501278,131.430130 
	C42.172588,131.284897 33.051865,122.248634 33.000599,107.997086 
	C32.921463,85.998688 32.921368,63.999596 33.000629,42.001202 
	C33.051975,27.749992 42.172989,18.641243 56.502949,18.580944 
	C78.834549,18.486977 101.167122,18.486866 123.498718,18.580990 
	C137.827545,18.641384 146.948166,27.751360 146.999420,42.002872 
	C147.078537,64.001266 147.078598,86.000366 146.999374,107.998756 
	C146.948059,122.249901 137.827042,131.326324 123.497047,131.422745 
	C109.165222,131.519211 94.832245,131.444077 79.999763,131.444168 
M118.119545,44.509495 
	C118.643616,43.762779 119.167679,43.016060 119.812897,42.096725 
	C111.865395,41.351440 111.885979,41.368946 107.194153,46.886234 
	C102.369881,52.559280 97.499863,58.193428 92.494072,64.026131 
	C87.651260,57.469109 83.054573,51.152508 78.332848,44.930805 
	C77.391884,43.690910 76.014748,41.973450 74.767212,41.911274 
	C68.542007,41.601009 62.292946,41.769417 54.986103,41.769417 
	C64.400513,54.447189 73.161011,66.244400 82.064400,78.234016 
	C73.739319,88.040977 65.543633,97.695511 57.084545,107.660332 
	C62.561661,109.061356 66.128380,108.171738 69.358665,103.919968 
	C74.605881,97.013474 80.589348,90.666351 86.391426,83.932953 
	C91.929047,91.366158 97.050041,98.333115 102.300468,105.201111 
	C103.233406,106.421463 104.663971,108.029175 105.933800,108.093437 
	C111.952118,108.397972 117.994385,108.229454 125.032570,108.229454 
	C115.110641,94.736572 105.907532,82.221230 96.715416,69.720833 
	C103.899536,61.310417 110.810776,53.219452 118.119545,44.509495 
z"/>
<path fill="#F1F1F1" opacity="1.000000" stroke="none" 
	d="
M117.920784,44.818993 
	C110.810776,53.219452 103.899536,61.310417 96.715416,69.720833 
	C105.907532,82.221230 115.110641,94.736572 125.032570,108.229454 
	C117.994385,108.229454 111.952118,108.397972 105.933800,108.093437 
	C104.663971,108.029175 103.233406,106.421463 102.300468,105.201111 
	C97.050041,98.333115 91.929047,91.366158 86.391426,83.932953 
	C80.589348,90.666351 74.605881,97.013474 69.358665,103.919968 
	C66.128380,108.171738 62.561661,109.061356 57.084545,107.660332 
	C65.543633,97.695511 73.739319,88.040977 82.064400,78.234016 
	C73.161011,66.244400 64.400513,54.447189 54.986103,41.769417 
	C62.292946,41.769417 68.542007,41.601009 74.767212,41.911274 
	C76.014748,41.973450 77.391884,43.690910 78.332848,44.930805 
	C83.054573,51.152508 87.651260,57.469109 92.494072,64.026131 
	C97.499863,58.193428 102.369881,52.559280 107.194153,46.886234 
	C111.885979,41.368946 111.865395,41.351440 119.812897,42.096725 
	C119.167679,43.016060 118.643616,43.762779 117.920784,44.818993 
M84.279991,61.212440 
	C81.925301,57.983978 79.264267,54.931175 77.288475,51.485455 
	C74.401398,46.450455 70.396751,45.731655 65.091736,47.204174 
	C77.900299,64.392372 90.672363,81.202820 103.017044,98.321465 
	C106.225861,102.771194 109.672638,103.869888 114.770866,102.486465 
	C104.669411,88.790825 94.703629,75.279121 84.279991,61.212440 
z"/>
<path fill="#0B0B0B" opacity="1.000000" stroke="none" 
	d="
M84.508919,61.489929 
	C94.703629,75.279121 104.669411,88.790825 114.770866,102.486465 
	C109.672638,103.869888 106.225861,102.771194 103.017044,98.321465 
	C90.672363,81.202820 77.900299,64.392372 65.091736,47.204174 
	C70.396751,45.731655 74.401398,46.450455 77.288475,51.485455 
	C79.264267,54.931175 81.925301,57.983978 84.508919,61.489929 
z"/>
</svg>